{
  "accessors": [
    {
      "bufferView": 2,
      "componentType": 5126,
      "count": 10732,
      "max": [
        1.9209790229797363,
        2.4931728839874268,
        2.4612207412719727
      ],
      "min": [
        -1.795395016670227,
        0.08277402818202972,
        -2.4430980682373047
      ],
      "type": "VEC3"
    },
    {
      "bufferView": 2,
      "byteOffset": 128784,
      "componentType": 5126,
      "count": 10732,
      "max": [
        0.999977707862854,
        0.9999910593032837,
        0.9999866485595703
      ],
      "min": [
        -0.999977707862854,
        -0.9998935461044312,
        -0.9999786615371704
      ],
      "type": "VEC3"
    },
    {
      "bufferView": 3,
      "componentType": 5126,
      "count": 10732,
      "max": [
        1.0,
        0.9999915361404419,
        0.9998607039451599,
        1.0
      ],
      "min": [
        -1.0,
        -0.999666690826416,
        -0.9997473359107971,
        -1.0
      ],
      "type": "VEC4"
    },
    {
      "bufferView": 1,
      "componentType": 5126,
      "count": 10732,
      "max": [
        1.9145926237106323,
        0.9962487816810608
      ],
      "min": [
        0.001446648733690381,
        0.0014393581077456474
      ],
      "type": "VEC2"
    },
    {
      "bufferView": 1,
      "byteOffset": 85856,
      "componentType": 5126,
      "count": 10732,
      "max": [
        1.9145926237106323,
        0.9962487816810608
      ],
      "min": [
        0.001446648733690381,
        0.0014393581077456474
      ],
      "type": "VEC2"
    },
    {
      "bufferView": 1,
      "byteOffset": 171712,
      "componentType": 5126,
      "count": 10732,
      "max": [
        1.9145926237106323,
        0.9962487816810608
      ],
      "min": [
        0.001446648733690381,
        0.0014393581077456474
      ],
      "type": "VEC2"
    },
    {
      "bufferView": 1,
      "byteOffset": 257568,
      "componentType": 5126,
      "count": 10732,
      "max": [
        1.9145926237106323,
        0.9962487816810608
      ],
      "min": [
        0.001446648733690381,
        0.0014393581077456474
      ],
      "type": "VEC2"
    },
    {
      "bufferView": 0,
      "componentType": 5125,
      "count": 53244,
      "type": "SCALAR"
    }
  ],
  "asset": {
    "extras": {
      "author": "Caplava (https://sketchfab.com/Caplava)",
      "license": "CC-BY-4.0 (http://creativecommons.org/licenses/by/4.0/)",
      "source": "https://sketchfab.com/3d-models/3dad0db69b7242bb87ab1847f500e72e",
      "title": "Череп коровы"
    },
    "generator": "Sketchfab-10.80.0",
    "version": "2.0"
  },
  "bufferViews": [
    {
      "buffer": 0,
      "byteLength": 212976,
      "name": "floatBufferViews",
      "target": 34963
    },
    {
      "buffer": 0,
      "byteLength": 343424,
      "byteOffset": 212976,
      "byteStride": 8,
      "name": "floatBufferViews",
      "target": 34962
    },
    {
      "buffer": 0,
      "byteLength": 257568,
      "byteOffset": 556400,
      "byteStride": 12,
      "name": "floatBufferViews",
      "target": 34962
    },
    {
      "buffer": 0,
      "byteLength": 171712,
      "byteOffset": 813968,
      "byteStride": 16,
      "name": "floatBufferViews",
      "target": 34962
    }
  ],
  "buffers": [
    {
      "byteLength": 985680,
      "uri": "scene.bin"
    }
  ],
  "images": [
    {
      "uri": "textures/Material.002_baseColor.png"
    },
    {
      "uri": "textures/Material.002_metallicRoughness.png"
    },
    {
      "uri": "textures/Material.002_normal.png"
    }
  ],
  "materials": [
    {
      "doubleSided": true,
      "name": "Material.002",
      "normalTexture": {
        "index": 2
      },
      "pbrMetallicRoughness": {
        "baseColorTexture": {
          "index": 0
        },
        "metallicFactor": 0.0,
        "metallicRoughnessTexture": {
          "index": 1
        }
      }
    }
  ],
  "meshes": [
    {
      "name": "Object_0",
      "primitives": [
        {
          "attributes": {
            "NORMAL": 1,
            "POSITION": 0,
            "TANGENT": 2,
            "TEXCOORD_0": 3,
            "TEXCOORD_1": 4,
            "TEXCOORD_2": 5,
            "TEXCOORD_3": 6
          },
          "indices": 7,
          "material": 0,
          "mode": 4
        }
      ]
    }
  ],
  "nodes": [
    {
      "children": [
        1
      ],
      "matrix": [
        1.0,
        0.0,
        0.0,
        0.0,
        0.0,
        2.220446049250313e-16,
        -1.0,
        0.0,
        0.0,
        1.0,
        2.220446049250313e-16,
        0.0,
        0.0,
        0.0,
        0.0,
        1.0
      ],
      "name": "Sketchfab_model"
    },
    {
      "children": [
        2
      ],
      "name": "root"
    },
    {
      "children": [
        3
      ],
      "matrix": [
        1.0,
        0.0,
        0.0,
        0.0,
        0.0,
        2.220446049250313e-16,
        1.0,
        0.0,
        0.0,
        -1.0,
        2.220446049250313e-16,
        0.0,
        0.0,
        0.0,
        0.0,
        1.0
      ],
      "name": "GLTF_SceneRootNode"
    },
    {
      "children": [
        4
      ],
      "matrix": [
        1.0,
        0.0,
        0.0,
        0.0,
        0.0,
        -1.685873969314855e-07,
        0.9999999999999858,
        0.0,
        0.0,
        -0.9999999999999858,
        -1.685873969314855e-07,
        0.0,
        0.0,
        0.0,
        0.0,
        1.0
      ],
      "name": "B_LP_2"
    },
    {
      "mesh": 0,
      "name": "Object_4"
    }
  ],
  "samplers": [
    {
      "magFilter": 9729,
      "minFilter": 9987,
      "wrapS": 10497,
      "wrapT": 10497
    }
  ],
  "scene": 0,
  "scenes": [
    {
      "name": "Sketchfab_Scene",
      "nodes": [
        0
      ]
    }
  ],
  "textures": [
    {
      "sampler": 0,
      "source": 0
    },
    {
      "sampler": 0,
      "source": 1
    },
    {
      "sampler": 0,
      "source": 2
    }
  ]
}
